<svg width="8" height="13" viewBox="0 0 8 13" fill="none" xmlns="http://www.w3.org/2000/svg">
<path d="M7.19238 5.76465C7.60266 6.17918 7.60225 6.83287 7.19141 7.24707L2.29102 12.1875C1.87768 12.6039 1.22189 12.604 0.808594 12.1875C0.607462 11.9847 0.50002 11.7157 0.5 11.4512L0.5 11.2451L0.538086 11.207C0.551454 11.1485 0.568204 11.0907 0.591797 11.0352C0.644656 10.9108 0.722378 10.7983 0.819336 10.7041L4.97949 6.5L0.818359 2.2959L0.819336 2.29492C0.408805 1.8804 0.4084 1.22679 0.819336 0.8125C1.23271 0.395833 1.88939 0.395784 2.30273 0.8125L2.30273 0.813477L7.19238 5.76465Z" fill="white" stroke="white"/>
</svg>
