<svg width="174" height="74" viewBox="0 0 174 74" fill="none" xmlns="http://www.w3.org/2000/svg">
<path d="M68.6138 46.8814C66.4688 46.8917 64.3238 46.8969 62.1737 46.902C61.1501 46.902 59.8538 46.902 58.8302 46.9072C59.3086 46.7065 60.2859 46.2179 61.0678 45.1634C62.1737 43.6768 62.1377 42.077 62.112 41.6038C62.1017 41.002 62.0965 40.395 62.0862 39.7932C62.076 38.7901 62.0605 37.7871 62.0502 36.7891H61.3867C60.2396 36.7891 59.2417 37.0412 58.3981 37.5556C57.8734 37.8796 57.5339 38.214 57.4568 38.2912C56.4794 39.2891 56.2222 40.539 56.0628 41.3055C56.001 41.6141 55.965 41.8764 55.9445 42.0513C55.821 42.6274 55.4404 43.9906 54.2367 45.1582C52.4723 46.8711 50.2656 46.8814 49.8027 46.8763V52.0202H55.9393V65.8778C55.9393 65.9549 55.9393 66.0167 55.9496 66.0835C55.9856 67.673 56.4794 68.9384 57.4413 69.9106C58.4495 70.9188 59.7664 71.4229 61.3815 71.4229H68.3103V66.2687H63.5574C62.6881 66.2687 62.2303 65.8315 62.184 64.9725C62.1737 64.9159 62.1737 64.8593 62.1737 64.7976V52.0253H68.8967C68.8042 50.3124 68.7116 48.5943 68.619 46.8814H68.6138Z" fill="#FC004E"/>
<path d="M13.059 10.1232C14.7565 9.48017 15.4201 8.63143 15.703 7.95758C16.0836 7.05226 15.9447 6.03377 16.7215 5.4628C17.0661 5.22104 17.4519 5.15417 17.7091 5.14388H21.9682V0H15.5332C14.3861 0 13.3882 0.25205 12.5446 0.766438C12.0611 1.0545 11.7422 1.36313 11.6033 1.50201C10.6671 2.44334 10.3533 3.5287 10.2299 4.0791C10.2299 4.5009 10.1476 6.65618 8.38323 8.37424C6.53657 10.1695 4.24755 10.1129 3.85661 10.0923V15.2362H10.0961V34.6389H16.3357V15.2362H22.7707V10.0923C19.5403 10.1026 16.2997 10.1129 13.0693 10.118L13.059 10.1232Z" fill="#FC004E"/>
<path d="M48.2938 24.227C49.2197 24.2476 50.1507 24.2733 51.0818 24.299C52.0179 24.3248 52.949 24.3505 53.8749 24.3762C53.9623 24.0881 54.0704 23.5892 53.9983 22.9771C53.8852 22.0357 53.4119 21.4236 53.3193 21.3104C52.5683 20.3691 51.5087 20.1788 51.2361 20.1376L48.3041 19.9422C48.3041 19.5975 48.2938 19.258 48.2938 18.9134V18.8465C48.2938 18.0081 48.2115 14.3919 45.4646 11.8148C43.0162 9.51553 39.935 9.39722 37.8003 9.39722C35.6655 9.39722 33.8961 9.71614 32.43 10.3591C30.964 11.0021 29.7861 11.8457 28.9168 12.8796C28.0372 13.9238 27.4045 15.0658 27.0135 16.326L32.749 18.2498C32.9804 17.1285 33.4794 16.2129 34.2356 15.503C35.002 14.7931 36.1491 14.4382 37.6974 14.4382C39.2457 14.4382 40.4442 14.8137 41.1592 15.5596C41.8896 16.2952 42.2497 17.2519 42.2497 18.399V19.7879H35.5164C33.6697 19.7879 32.034 20.0759 30.5937 20.6469C29.1534 21.2281 28.0372 22.0872 27.2244 23.224C26.422 24.3608 26.0208 25.7753 26.0208 27.4522C26.0208 29.1291 26.422 30.5591 27.2244 31.7371C28.0372 32.9048 29.1277 33.7998 30.5217 34.4068C31.9054 35.0137 33.4743 35.3224 35.218 35.3224C36.9618 35.3224 38.2889 35.0703 39.2817 34.5765C40.2693 34.0827 40.9998 33.5117 41.4576 32.879C41.9257 32.2361 42.2137 31.7114 42.3526 31.3204H43.2888V31.3667C43.2888 32.3544 43.69 33.1517 44.477 33.7381C45.2692 34.3348 46.2774 34.6331 47.5016 34.6331H51.6579V29.4789H49.6775C49.2505 29.4789 48.9213 29.3761 48.6899 29.16C48.196 28.7022 48.2886 28.0489 48.2989 28.0026V24.2219L48.2938 24.227ZM42.2549 24.9369C42.2549 26.5521 41.7045 27.8483 40.5934 28.8205C39.4926 29.7927 38.0626 30.2762 36.3188 30.2762C35.002 30.2762 33.9938 29.9985 33.3045 29.4378C32.6049 28.8771 32.2603 28.1518 32.2603 27.2619C32.2603 26.372 32.5947 25.6725 33.2479 25.1786C33.9115 24.6848 34.8168 24.4431 35.9742 24.4431H42.26V24.9369H42.2549Z" fill="#FC004E"/>
<path d="M90.6284 13.5845C89.8826 12.278 88.8898 11.3058 87.6604 10.6628C86.4207 10.0198 85.0473 9.6906 83.5247 9.6906C81.6472 9.6906 80.1915 10.0455 79.173 10.7348C78.1442 11.4241 77.3521 12.3037 76.7914 13.3582H75.9067C75.346 12.2677 74.5332 11.3881 73.4787 10.7091C72.4242 10.0352 71.0251 9.6906 69.2762 9.6906C67.661 9.6906 66.3545 9.99923 65.3617 10.6165C64.3741 11.2235 63.6642 11.9436 63.2321 12.7615H62.3474V10.0918H56.2056V34.6384H62.4451V20.1378C62.4451 18.4558 62.8361 17.1595 63.6128 16.2542C64.3895 15.3489 65.48 14.8911 66.8997 14.8911C68.16 14.8911 69.1322 15.2254 69.8214 15.9095C70.5107 16.5834 70.8554 17.6019 70.8554 18.9547V34.6384H77.0949V20.1378C77.0949 18.4558 77.4858 17.1595 78.2626 16.2542C79.0393 15.3489 80.1298 14.8911 81.5495 14.8911C82.7995 14.8911 83.7819 15.2254 84.4712 15.9095C85.1605 16.5834 85.5051 17.6019 85.5051 18.9547V34.6384H91.7447V18.5021C91.7447 16.5217 91.3692 14.8808 90.6336 13.5794L90.6284 13.5845Z" fill="#FC004E"/>
<path d="M122.552 22.3808C122.46 21.0537 122.274 19.9272 121.992 18.991L116.503 20.6987C116.848 21.6606 117.007 22.6946 116.961 23.8159C116.915 24.9373 116.272 26.1152 115.027 27.3446C113.823 28.5586 112.424 29.2119 110.834 29.3044C109.245 29.397 107.836 28.8724 106.596 27.7356L119.229 15.1022L117.727 13.6002C115.953 11.8255 114.049 10.6116 112.002 9.97889C109.965 9.3359 107.933 9.25874 105.917 9.76284C103.9 10.2669 102.044 11.3677 100.341 13.0704C98.6126 14.7987 97.4552 16.6814 96.8842 18.7286C96.3133 20.7656 96.3441 22.818 96.9614 24.8807C97.5787 26.9434 98.8029 28.8878 100.614 30.7087L101.035 31.1305C102.856 32.9515 104.806 34.1654 106.879 34.7724C108.962 35.3794 111.025 35.3897 113.077 34.8084C115.124 34.222 117.017 33.0646 118.746 31.3466C120.335 29.7571 121.39 28.1985 121.909 26.6708C122.434 25.1482 122.645 23.7182 122.552 22.3859V22.3808ZM102.229 20.6987C102.321 19.3922 102.964 18.1474 104.153 16.954C105.289 15.8172 106.524 15.1896 107.841 15.0868C109.168 14.9839 110.371 15.3851 111.462 16.2904L103.35 24.4126C102.512 23.245 102.136 22.0053 102.229 20.6987Z" fill="#FC004E"/>
<path d="M97.3988 51.9792C96.2774 50.0914 94.7497 48.6665 92.795 47.6738C90.8506 46.6861 88.6593 46.1872 86.2108 46.1872C83.7623 46.1872 81.5813 46.681 79.6267 47.6738C77.6823 48.6614 76.1545 50.0914 75.0332 51.9792C73.9015 53.8567 73.3408 56.1149 73.3408 58.7588V59.551C73.3408 62.1847 73.9015 64.4428 75.0332 66.3306C76.1545 68.2081 77.6823 69.6433 79.6267 70.6361C81.5762 71.6237 83.7726 72.1226 86.2108 72.1226C88.649 72.1226 90.8506 71.6288 92.795 70.6361C94.7445 69.6484 96.2774 68.2081 97.3988 66.3306C98.5201 64.4428 99.0808 62.1847 99.0808 59.551V58.7588C99.0808 56.1149 98.5201 53.8567 97.3988 51.9792ZM97.4348 59.0417C90.47 61.3925 88.5667 63.2957 86.216 70.2605C83.8652 63.2957 81.962 61.3925 74.9972 59.0417C81.962 56.691 83.8652 54.7878 86.216 47.8229C88.5667 54.7878 90.47 56.691 97.4348 59.0417Z" fill="#FC004E"/>
<path d="M127.391 51.4084C126.599 49.8755 125.488 48.6719 124.048 47.7974C122.608 46.9178 120.941 46.4806 119.022 46.4806C116.811 46.4806 115.164 46.8715 114.074 47.6482C112.989 48.4249 112.243 49.2428 111.852 50.0967H110.957V46.8869H104.82V71.4335H111.06V58.9596C111.06 56.6809 111.584 54.9062 112.639 53.6357C113.704 52.3652 115.19 51.7325 117.093 51.7325C118.786 51.7325 120.072 52.2006 120.987 53.1213C121.893 54.0472 122.34 55.4258 122.34 57.2776V71.4335H128.58V56.7838C128.58 54.7365 128.189 52.9464 127.391 51.4135V51.4084Z" fill="#FC004E"/>
<path d="M135.308 46.8809V71.4275H141.548V46.8809H135.308Z" fill="#FC004E"/>
<path d="M165.888 56.0687C166.819 57.3804 167.287 58.7229 167.287 60.0964C167.287 61.4698 166.619 62.8226 165.286 64.1549C164.402 65.0396 163.409 65.6466 162.313 65.9758C161.223 66.2999 160.086 66.2844 158.918 65.9347C157.751 65.5849 156.619 64.8647 155.523 63.7691L155.174 63.4193C154.078 62.3237 153.353 61.1869 153.003 60.0192C152.658 58.8567 152.648 57.7199 152.972 56.6345C153.296 55.5337 153.903 54.541 154.788 53.6562C155.678 52.7663 156.583 52.1902 157.509 51.9279C158.425 51.6552 159.33 51.6398 160.215 51.8764C161.105 52.1079 161.943 52.5246 162.735 53.1315L166.089 47.9568C164.577 46.9074 162.946 46.2387 161.192 45.961C159.448 45.6832 157.684 45.8478 155.909 46.4496C154.14 47.0566 152.422 48.1934 150.765 49.8497C149.088 51.5266 147.921 53.3939 147.252 55.4617C146.583 57.5296 146.522 59.6128 147.062 61.7424C147.592 63.8668 148.805 65.8729 150.693 67.7659L151.182 68.2546C153.075 70.1475 155.076 71.3563 157.211 71.8913C159.33 72.4262 161.423 72.3645 163.491 71.701C165.559 71.0374 167.426 69.8646 169.103 68.1877C170.78 66.5108 171.896 64.8133 172.498 63.0387C173.105 61.2692 173.27 59.5048 172.987 57.7559C172.714 56.007 172.102 54.3609 171.171 52.8229L165.888 56.0687Z" fill="#FC004E"/>
<path d="M143.04 40.0764C140.175 41.0434 139.393 41.8253 138.426 44.6904C137.459 41.8253 136.677 41.0434 133.812 40.0764C136.677 39.1093 137.459 38.3275 138.426 35.4623C139.393 38.3275 140.175 39.1093 143.04 40.0764Z" fill="#FC004E"/>
<path d="M64.7572 48.6309C62.6122 48.6412 60.4672 48.6464 58.3171 48.6515C57.2934 48.6515 55.9972 48.6515 54.9736 48.6566C55.4519 48.456 56.4293 47.9674 57.2111 46.9129C58.3171 45.4263 58.2811 43.8265 58.2554 43.3533C58.2451 42.7515 58.2399 42.1445 58.2296 41.5427C58.2193 40.5396 58.2039 39.5365 58.1936 38.5386H57.5301C56.383 38.5386 55.3851 38.7907 54.5415 39.3051C54.0168 39.6291 53.6773 39.9635 53.6001 40.0406C52.6228 41.0385 52.3656 42.2885 52.2062 43.0549C52.1444 43.3636 52.1084 43.6259 52.0878 43.8008C51.9644 44.3769 51.5837 45.7401 50.3801 46.9077C48.6157 48.6206 46.409 48.6309 45.946 48.6258V53.7697H52.0827V67.6273C52.0827 67.7044 52.0827 67.7662 52.093 67.833C52.129 69.4225 52.6228 70.6879 53.5847 71.6601C54.5929 72.6683 55.9097 73.1724 57.5249 73.1724H64.4537V68.0182H59.7008C58.8315 68.0182 58.3737 67.581 58.3274 66.722C58.3171 66.6654 58.3171 66.6088 58.3171 66.5471V53.7748H65.0401C64.9475 52.0619 64.855 50.3438 64.7624 48.6309H64.7572Z" fill="#00E7F9"/>
<path d="M9.2024 11.8727C10.8999 11.2297 11.5634 10.3809 11.8464 9.70708C12.227 8.80176 12.0881 7.78327 12.8648 7.2123C13.2095 6.97054 13.5953 6.90367 13.8525 6.89338H18.1116V1.7495H11.6766C10.5295 1.7495 9.53161 2.00155 8.68801 2.51594C8.20449 2.80399 7.88557 3.11263 7.74668 3.25151C6.8105 4.19284 6.49672 5.2782 6.37327 5.8286C6.37327 6.25039 6.29097 8.40568 4.52662 10.1237C2.67996 11.919 0.390935 11.8624 0 11.8418V16.9857H6.23953V36.3884H12.4791V16.9857H18.9141V11.8418C15.6837 11.8521 12.443 11.8624 9.21269 11.8675L9.2024 11.8727Z" fill="#00E7F9"/>
<path d="M44.4372 25.9765C45.3631 25.9971 46.2941 26.0228 47.2251 26.0485C48.1613 26.0743 49.0924 26.1 50.0183 26.1257C50.1057 25.8376 50.2137 25.3387 50.1417 24.7266C50.0286 23.7852 49.5553 23.1731 49.4627 23.0599C48.7117 22.1186 47.6521 21.9283 47.3795 21.8871L44.4475 21.6917C44.4475 21.347 44.4372 21.0075 44.4372 20.6629V20.596C44.4372 19.7576 44.3549 16.1414 41.608 13.5643C39.1595 11.265 36.0784 11.1467 33.9436 11.1467C31.8089 11.1467 30.0394 11.4656 28.5734 12.1086C27.1074 12.7516 25.9295 13.5952 25.0602 14.6291C24.1806 15.6733 23.5479 16.8153 23.1569 18.0755L28.8924 19.9993C29.1238 18.878 29.6228 17.9624 30.3789 17.2525C31.1454 16.5426 32.2925 16.1877 33.8408 16.1877C35.3891 16.1877 36.5876 16.5632 37.3026 17.3091C38.033 18.0447 38.3931 19.0014 38.3931 20.1485V21.5373H31.6598C29.8131 21.5373 28.1774 21.8254 26.7371 22.3964C25.2968 22.9776 24.1806 23.8367 23.3678 24.9735C22.5654 26.1103 22.1642 27.5248 22.1642 29.2017C22.1642 30.8786 22.5654 32.3086 23.3678 33.4866C24.1806 34.6542 25.2711 35.5493 26.6651 36.1563C28.0488 36.7632 29.6176 37.0719 31.3614 37.0719C33.1052 37.0719 34.4323 36.8198 35.4251 36.326C36.4127 35.8322 37.1431 35.2612 37.6009 34.6285C38.069 33.9855 38.3571 33.4609 38.496 33.0699H39.4322V33.1162C39.4322 34.1039 39.8334 34.9012 40.6204 35.4876C41.4126 36.0842 42.4208 36.3826 43.645 36.3826H47.8013V31.2284H45.8209C45.3939 31.2284 45.0647 31.1255 44.8332 30.9095C44.3394 30.4517 44.432 29.7984 44.4423 29.7521V25.9714L44.4372 25.9765ZM38.3982 26.6864C38.3982 28.3016 37.8479 29.5978 36.7368 30.57C35.636 31.5422 34.206 32.0257 32.4622 32.0257C31.1454 32.0257 30.1372 31.748 29.4479 31.1873C28.7483 30.6266 28.4037 29.9013 28.4037 29.0114C28.4037 28.1215 28.738 27.4219 29.3913 26.9281C30.0549 26.4343 30.9602 26.1926 32.1176 26.1926H38.4034V26.6864H38.3982Z" fill="#00E7F9"/>
<path d="M86.7718 15.334C86.026 14.0275 85.0332 13.0553 83.8038 12.4123C82.5641 11.7693 81.1907 11.4401 79.6681 11.4401C77.7906 11.4401 76.3349 11.795 75.3164 12.4843C74.2876 13.1736 73.4955 14.0532 72.9348 15.1077H72.05C71.4894 14.0172 70.6766 13.1376 69.6221 12.4586C68.5676 11.7847 67.1685 11.4401 65.4196 11.4401C63.8044 11.4401 62.4979 11.7487 61.5051 12.366C60.5175 12.973 59.8076 13.6931 59.3755 14.511H58.4908V11.8413H52.349V36.3879H58.5885V21.8873C58.5885 20.2053 58.9794 18.909 59.7562 18.0037C60.5329 17.0984 61.6234 16.6406 63.0431 16.6406C64.3034 16.6406 65.2756 16.9749 65.9648 17.659C66.6541 18.3329 66.9987 19.3514 66.9987 20.7042V36.3879H73.2383V21.8873C73.2383 20.2053 73.6292 18.909 74.4059 18.0037C75.1827 17.0984 76.2732 16.6406 77.6929 16.6406C78.9428 16.6406 79.9253 16.9749 80.6146 17.659C81.3039 18.3329 81.6485 19.3514 81.6485 20.7042V36.3879H87.888V20.2516C87.888 18.2712 87.5126 16.6303 86.777 15.3289L86.7718 15.334Z" fill="#00E7F9"/>
<path d="M118.696 24.1303C118.603 22.8032 118.418 21.6766 118.135 20.7405L112.646 22.4482C112.991 23.4101 113.15 24.4441 113.104 25.5654C113.058 26.6868 112.415 27.8647 111.17 29.0941C109.966 30.3081 108.567 30.9613 106.978 31.0539C105.388 31.1465 103.979 30.6219 102.739 29.4851L115.373 16.8517L113.871 15.3497C112.096 13.575 110.193 12.3611 108.145 11.7284C106.109 11.0854 104.077 11.0082 102.06 11.5123C100.044 12.0164 98.1869 13.1172 96.4843 14.8198C94.756 16.5482 93.5986 18.4309 93.0276 20.4781C92.4567 22.5151 92.4875 24.5675 93.1048 26.6302C93.722 28.6929 94.9463 30.6373 96.7569 32.4582L97.1787 32.88C98.9997 34.7009 100.949 35.9149 103.022 36.5219C105.105 37.1289 107.168 37.1392 109.221 36.5579C111.268 35.9715 113.161 34.8141 114.889 33.0961C116.479 31.5066 117.533 29.948 118.053 28.4203C118.577 26.8977 118.788 25.4677 118.696 24.1354V24.1303ZM98.3721 22.4482C98.4647 21.1417 99.1077 19.8969 100.296 18.7035C101.433 17.5667 102.667 16.9391 103.984 16.8363C105.311 16.7334 106.515 17.1346 107.605 18.0399L99.4935 26.1621C98.655 24.9944 98.2795 23.7548 98.3721 22.4482Z" fill="#00E7F9"/>
<path d="M93.5422 53.7287C92.4208 51.8409 90.8931 50.416 88.9384 49.4233C86.994 48.4356 84.8027 47.9367 82.3542 47.9367C79.9057 47.9367 77.7247 48.4305 75.77 49.4233C73.8257 50.4109 72.2979 51.8409 71.1766 53.7287C70.0449 55.6062 69.4842 57.8644 69.4842 60.5083V61.3005C69.4842 63.9341 70.0449 66.1923 71.1766 68.0801C72.2979 69.9576 73.8257 71.3928 75.77 72.3855C77.7196 73.3732 79.916 73.8721 82.3542 73.8721C84.7924 73.8721 86.994 73.3783 88.9384 72.3855C90.8879 71.3979 92.4208 69.9576 93.5422 68.0801C94.6635 66.1923 95.2242 63.9341 95.2242 61.3005V60.5083C95.2242 57.8644 94.6635 55.6062 93.5422 53.7287ZM93.5782 60.7912C86.6133 63.142 84.7101 65.0452 82.3594 72.01C80.0086 65.0452 78.1054 63.142 71.1406 60.7912C78.1054 58.4405 80.0086 56.5372 82.3594 49.5724C84.7101 56.5372 86.6133 58.4405 93.5782 60.7912Z" fill="#00E7F9"/>
<path d="M123.535 53.1579C122.743 51.625 121.632 50.4213 120.191 49.5469C118.751 48.6673 117.085 48.2301 115.166 48.2301C112.954 48.2301 111.308 48.621 110.217 49.3977C109.132 50.1744 108.386 50.9923 107.995 51.8462H107.1V48.6364H100.964V73.183H107.203V60.7091C107.203 58.4304 107.728 56.6557 108.782 55.3852C109.847 54.1146 111.334 53.482 113.237 53.482C114.929 53.482 116.215 53.95 117.131 54.8708C118.036 55.7967 118.484 57.1753 118.484 59.0271V73.183H124.723V58.5332C124.723 56.486 124.332 54.6959 123.535 53.163V53.1579Z" fill="#00E7F9"/>
<path d="M131.452 48.6303V73.1769H137.691V48.6303H131.452Z" fill="#00E7F9"/>
<path d="M162.032 57.8182C162.963 59.1299 163.431 60.4724 163.431 61.8458C163.431 63.2193 162.762 64.5721 161.43 65.9044C160.545 66.7891 159.552 67.3961 158.457 67.7253C157.366 68.0494 156.229 68.0339 155.062 67.6841C153.894 67.3344 152.762 66.6142 151.667 65.5186L151.317 65.1688C150.221 64.0731 149.496 62.9363 149.146 61.7687C148.802 60.6062 148.791 59.4694 149.115 58.384C149.44 57.2832 150.047 56.2904 150.931 55.4057C151.821 54.5158 152.726 53.9397 153.652 53.6774C154.568 53.4047 155.473 53.3893 156.358 53.6259C157.248 53.8574 158.086 54.274 158.879 54.881L162.232 49.7063C160.72 48.6569 159.089 47.9882 157.335 47.7104C155.592 47.4327 153.827 47.5973 152.053 48.1991C150.283 48.8061 148.565 49.9429 146.909 51.5992C145.232 53.2761 144.064 55.1434 143.395 57.2112C142.727 59.279 142.665 61.3623 143.205 63.4919C143.735 65.6163 144.949 67.6224 146.837 69.5154L147.325 70.004C149.218 71.897 151.219 73.1058 153.354 73.6408C155.473 74.1757 157.567 74.114 159.635 73.4504C161.703 72.7869 163.57 71.6141 165.247 69.9372C166.924 68.2603 168.04 66.5628 168.642 64.7881C169.249 63.0186 169.413 61.2543 169.13 59.5054C168.858 57.7564 168.246 56.1104 167.315 54.5724L162.032 57.8182Z" fill="#00E7F9"/>
<path d="M139.183 41.8259C136.318 42.7929 135.536 43.5748 134.569 46.4399C133.602 43.5748 132.82 42.7929 129.955 41.8259C132.82 40.8588 133.602 40.0769 134.569 37.2118C135.536 40.0769 136.318 40.8588 139.183 41.8259Z" fill="#00E7F9"/>
<path d="M66.3515 47.9604C64.2065 47.9707 62.0615 47.9758 59.9114 47.981C58.8877 47.981 57.5915 47.981 56.5679 47.9861C57.0462 47.7855 58.0236 47.2968 58.8054 46.2423C59.9114 44.7558 59.8754 43.156 59.8496 42.6828C59.8394 42.0809 59.8342 41.474 59.8239 40.8721C59.8136 39.8691 59.7982 38.866 59.7879 37.8681H59.1244C57.9773 37.8681 56.9794 38.1202 56.1358 38.6345C55.6111 38.9586 55.2716 39.293 55.1944 39.3701C54.2171 40.368 53.9599 41.618 53.8004 42.3844C53.7387 42.6931 53.7027 42.9554 53.6821 43.1303C53.5587 43.7064 53.178 45.0695 51.9744 46.2372C50.21 47.9501 48.0033 47.9604 47.5403 47.9553V53.0991H53.677V66.9568C53.677 67.0339 53.677 67.0956 53.6873 67.1625C53.7233 68.752 54.2171 70.0174 55.179 70.9896C56.1872 71.9978 57.504 72.5019 59.1192 72.5019H66.048V67.3477H61.2951C60.4258 67.3477 59.968 66.9105 59.9217 66.0514C59.9114 65.9948 59.9114 65.9383 59.9114 65.8765V53.1043H66.6344C66.5418 51.3914 66.4492 49.6733 66.3567 47.9604H66.3515Z" fill="white"/>
<path d="M10.7969 11.2022C12.4944 10.5592 13.158 9.71047 13.4409 9.03662C13.8215 8.1313 13.6827 7.11281 14.4594 6.54184C14.804 6.30008 15.1898 6.23321 15.447 6.22292H19.7061V1.07904H13.2711C12.1241 1.07904 11.1261 1.33109 10.2826 1.84547C9.79903 2.13353 9.48011 2.44216 9.34122 2.58105C8.40504 3.52238 8.09126 4.60774 7.96781 5.15813C7.96781 5.57993 7.8855 7.73522 6.12115 9.45327C4.2745 11.2485 1.98547 11.1919 1.59454 11.1713V16.3152H7.83406V35.7179H14.0736V16.3152H20.5086V11.1713C17.2782 11.1816 14.0376 11.1919 10.8072 11.1971L10.7969 11.2022Z" fill="white"/>
<path d="M46.0315 25.306C46.9574 25.3266 47.8885 25.3523 48.8195 25.378C49.7557 25.4037 50.6867 25.4295 51.6126 25.4552C51.7001 25.1671 51.8081 24.6682 51.7361 24.056C51.6229 23.1147 51.1497 22.5026 51.0571 22.3894C50.3061 21.4481 49.2464 21.2578 48.9738 21.2166L46.0418 21.0211C46.0418 20.6765 46.0315 20.337 46.0315 19.9924V19.9255C46.0315 19.0871 45.9492 15.4709 43.2024 12.8938C40.7539 10.5945 37.6727 10.4762 35.538 10.4762C33.4033 10.4762 31.6338 10.7951 30.1678 11.4381C28.7018 12.0811 27.5238 12.9247 26.6545 13.9586C25.7749 15.0028 25.1422 16.1448 24.7513 17.405L30.4867 19.3288C30.7182 18.2074 31.2171 17.2918 31.9733 16.582C32.7397 15.8721 33.8868 15.5172 35.4351 15.5172C36.9834 15.5172 38.182 15.8927 38.897 16.6386C39.6274 17.3741 39.9875 18.3309 39.9875 19.478V20.8668H33.2541C31.4075 20.8668 29.7717 21.1549 28.3314 21.7259C26.8911 22.3071 25.7749 23.1661 24.9622 24.3029C24.1597 25.4397 23.7585 26.8543 23.7585 28.5312C23.7585 30.2081 24.1597 31.6381 24.9622 32.8161C25.7749 33.9837 26.8654 34.8788 28.2594 35.4857C29.6431 36.0927 31.212 36.4014 32.9558 36.4014C34.6995 36.4014 36.0267 36.1493 37.0194 35.6555C38.0071 35.1617 38.7375 34.5907 39.1953 33.958C39.6634 33.315 39.9514 32.7904 40.0903 32.3994H41.0265V32.4457C41.0265 33.4333 41.4277 34.2306 42.2148 34.817C43.0069 35.4137 44.0151 35.7121 45.2394 35.7121H49.3956V30.5579H47.4152C46.9883 30.5579 46.6591 30.455 46.4276 30.239C45.9338 29.7812 46.0264 29.1279 46.0367 29.0816V25.3009L46.0315 25.306ZM39.9926 26.0159C39.9926 27.631 39.4422 28.9273 38.3311 29.8995C37.2303 30.8717 35.8003 31.3552 34.0566 31.3552C32.7397 31.3552 31.7315 31.0774 31.0422 30.5168C30.3427 29.9561 29.998 29.2308 29.998 28.3409C29.998 27.451 30.3324 26.7514 30.9857 26.2576C31.6492 25.7638 32.5546 25.522 33.7119 25.522H39.9977V26.0159H39.9926Z" fill="white"/>
<path d="M88.3661 14.6635C87.6203 13.3569 86.6275 12.3848 85.3981 11.7418C84.1584 11.0988 82.785 10.7696 81.2624 10.7696C79.3849 10.7696 77.9292 11.1245 76.9107 11.8138C75.8819 12.5031 75.0898 13.3827 74.5291 14.4372H73.6443C73.0837 13.3467 72.2709 12.4671 71.2164 11.7881C70.1619 11.1142 68.7628 10.7696 67.0139 10.7696C65.3987 10.7696 64.0922 11.0782 63.0994 11.6955C62.1118 12.3024 61.4019 13.0226 60.9698 13.8405H60.0851V11.1708H53.9433V35.7174H60.1828V21.2168C60.1828 19.5347 60.5737 18.2385 61.3505 17.3332C62.1272 16.4278 63.2177 15.97 64.6374 15.97C65.8977 15.97 66.8698 16.3044 67.5591 16.9885C68.2484 17.6624 68.593 18.6809 68.593 20.0337V35.7174H74.8326V21.2168C74.8326 19.5347 75.2235 18.2385 76.0002 17.3332C76.777 16.4278 77.8675 15.97 79.2872 15.97C80.5371 15.97 81.5196 16.3044 82.2089 16.9885C82.8982 17.6624 83.2428 18.6809 83.2428 20.0337V35.7174H89.4823V19.581C89.4823 17.6006 89.1068 15.9597 88.3713 14.6583L88.3661 14.6635Z" fill="white"/>
<path d="M120.29 23.4598C120.197 22.1326 120.012 21.0061 119.729 20.0699L114.241 21.7777C114.585 22.7396 114.745 23.7735 114.699 24.8949C114.652 26.0163 114.009 27.1942 112.764 28.4236C111.561 29.6376 110.162 30.2908 108.572 30.3834C106.983 30.476 105.573 29.9513 104.334 28.8145L116.967 16.1812L115.465 14.6792C113.69 12.9045 111.787 11.6906 109.74 11.0579C107.703 10.4149 105.671 10.3377 103.655 10.8418C101.638 11.3459 99.7813 12.4467 98.0787 14.1493C96.3503 15.8777 95.1929 17.7603 94.622 19.8076C94.051 21.8446 94.0819 23.897 94.6991 25.9597C95.3164 28.0224 96.5406 29.9668 98.3513 31.7877L98.7731 32.2095C100.594 34.0304 102.544 35.2444 104.617 35.8514C106.7 36.4583 108.763 36.4686 110.815 35.8874C112.862 35.301 114.755 34.1436 116.483 32.4255C118.073 30.8361 119.127 29.2775 119.647 27.7498C120.172 26.2272 120.383 24.7972 120.29 23.4649V23.4598ZM99.9665 21.7777C100.059 20.4712 100.702 19.2263 101.89 18.033C103.027 16.8962 104.262 16.2686 105.578 16.1657C106.906 16.0629 108.109 16.4641 109.2 17.3694L101.088 25.4916C100.249 24.3239 99.8739 23.0843 99.9665 21.7777Z" fill="white"/>
<path d="M95.1365 53.0582C94.0151 51.1704 92.4874 49.7455 90.5327 48.7527C88.5883 47.7651 86.3971 47.2662 83.9486 47.2662C81.5001 47.2662 79.3191 47.76 77.3644 48.7527C75.42 49.7404 73.8923 51.1704 72.7709 53.0582C71.6393 54.9357 71.0786 57.1938 71.0786 59.8378V60.63C71.0786 63.2636 71.6393 65.5218 72.7709 67.4096C73.8923 69.2871 75.42 70.7223 77.3644 71.715C79.3139 72.7027 81.5104 73.2016 83.9486 73.2016C86.3868 73.2016 88.5883 72.7078 90.5327 71.715C92.4823 70.7274 94.0151 69.2871 95.1365 67.4096C96.2579 65.5218 96.8186 63.2636 96.8186 60.63V59.8378C96.8186 57.1938 96.2579 54.9357 95.1365 53.0582ZM95.1725 60.1207C88.2077 62.4715 86.3045 64.3747 83.9537 71.3395C81.603 64.3747 79.6997 62.4715 72.7349 60.1207C79.6997 57.77 81.603 55.8667 83.9537 48.9019C86.3045 55.8667 88.2077 57.77 95.1725 60.1207Z" fill="white"/>
<path d="M125.129 52.4874C124.337 50.9545 123.226 49.7508 121.786 48.8764C120.345 47.9968 118.679 47.5595 116.76 47.5595C114.548 47.5595 112.902 47.9505 111.812 48.7272C110.726 49.5039 109.981 50.3218 109.59 51.1757H108.695V47.9659H102.558V72.5125H108.797V60.0386C108.797 57.7599 109.322 55.9852 110.377 54.7147C111.441 53.4441 112.928 52.8114 114.831 52.8114C116.524 52.8114 117.809 53.2795 118.725 54.2003C119.63 55.1262 120.078 56.5047 120.078 58.3565V72.5125H126.317V57.8627C126.317 55.8155 125.927 54.0254 125.129 52.4925V52.4874Z" fill="white"/>
<path d="M133.046 47.9598V72.5064H139.286V47.9598H133.046Z" fill="white"/>
<path d="M163.626 57.1477C164.557 58.4594 165.025 59.8019 165.025 61.1753C165.025 62.5487 164.356 63.9016 163.024 65.2338C162.139 66.1186 161.147 66.7256 160.051 67.0548C158.961 67.3788 157.824 67.3634 156.656 67.0136C155.488 66.6638 154.357 65.9437 153.261 64.8481L152.911 64.4983C151.816 63.4026 151.09 62.2658 150.741 61.0982C150.396 59.9356 150.386 58.7988 150.71 57.7135C151.034 56.6127 151.641 55.6199 152.526 54.7352C153.415 53.8453 154.321 53.2692 155.247 53.0068C156.162 52.7342 157.068 52.7188 157.952 52.9554C158.842 53.1869 159.681 53.6035 160.473 54.2105L163.827 49.0358C162.314 47.9864 160.684 47.3177 158.93 47.0399C157.186 46.7622 155.422 46.9268 153.647 47.5286C151.877 48.1356 150.159 49.2724 148.503 50.9287C146.826 52.6056 145.658 54.4728 144.99 56.5407C144.321 58.6085 144.259 60.6918 144.799 62.8214C145.329 64.9458 146.543 66.9519 148.431 68.8448L148.92 69.3335C150.813 71.2265 152.814 72.4353 154.948 72.9702C157.068 73.5052 159.161 73.4435 161.229 72.7799C163.297 72.1164 165.164 70.9436 166.841 69.2666C168.518 67.5897 169.634 65.8923 170.236 64.1176C170.843 62.3481 171.008 60.5838 170.725 58.8349C170.452 57.0859 169.84 55.4399 168.909 53.9019L163.626 57.1477Z" fill="white"/>
<path d="M140.777 41.1553C137.912 42.1224 137.13 42.9043 136.163 45.7694C135.196 42.9043 134.414 42.1224 131.549 41.1553C134.414 40.1883 135.196 39.4064 136.163 36.5413C137.13 39.4064 137.912 40.1883 140.777 41.1553Z" fill="white"/>
</svg>
